# xmcd CD database file
#
# Track frame offsets:
#	182
#	31082
#	54632
#	79420
#	107782
#	137170
#	154907
#	184832
#	209770
#	234370
#
# Disc length: 3309 seconds
#
# Revision: 0
# Processed by: cddbd v1.5.1PL0 Copyright (c) Steve Scherf et al.
# Submitted via: CDex 1.50
#
DISCID=8b0ceb0a
DTITLE=Saxophone Connection - Saxophone Connection
DYEAR=1900
DGENRE=Jazz
TTITLE0=Wrap Your Troubles In Dreams
TTITLE1=I Should Care
TTITLE2=The Nearness Of You/You Go To My Head
TTITLE3=Dear Old Stockholm
TTITLE4=The End Of A Love Affair
TTITLE5=Like Someone In Love
TTITLE6=When Sunny Gets Blue/Body And Soul
TTITLE7=Have You Met Miss Jones
TTITLE8=Our Love Is Here To Stay
TTITLE9=My One And Only Love
EXTD=
EXTT0=
EXTT1=
EXTT2=
EXTT3=
EXTT4=
EXTT5=
EXTT6=
EXTT7=
EXTT8=
EXTT9=
PLAYORDER=
